<svg width="299" height="234" viewBox="0 0 299 234" fill="none" xmlns="http://www.w3.org/2000/svg">
<g opacity="0.8">
<path d="M299 133.577C299 202.544 209.426 237.989 139.978 232.643C71.2505 227.356 0 169.322 0 100.355C0 31.3869 73.4133 0.988281 142.381 0.988281C211.349 0.988281 299 64.6091 299 133.577Z" fill="#66A500"/>
<path d="M87.4111 216.705C88.4324 189.13 96.0621 147.617 130.366 130.255C166.412 112.052 237.842 136.923 289.268 168.644" stroke="#141413" stroke-width="4" stroke-miterlimit="10" stroke-linecap="round" stroke-linejoin="round"/>
<path d="M122.796 228.239C118.591 207.693 120.032 183.362 141.48 166C170.256 142.631 226.788 159.632 275.75 186.546" stroke="#141413" stroke-width="4" stroke-miterlimit="10" stroke-linecap="round" stroke-linejoin="round"/>
<path d="M158.902 231.123C157.1 216.945 158.241 203.127 167.313 197.24C182.752 187.207 214.172 187.087 254.904 203.428" stroke="#141413" stroke-width="4" stroke-miterlimit="10" stroke-linecap="round" stroke-linejoin="round"/>
</g>
</svg>
