<svg width="48" height="48" viewBox="0 0 48 48" fill="none" xmlns="http://www.w3.org/2000/svg">
<rect width="48" height="48" rx="13" fill="#F3F5FB"/>
<path d="M23.9994 15.6665C19.3968 15.6665 15.666 19.3973 15.666 23.9998C15.666 28.159 18.7135 31.6065 22.6977 32.2323V26.4082H20.581V23.9998H22.6977V22.164C22.6977 20.0757 23.941 18.9223 25.8452 18.9223C26.7569 18.9223 27.7102 19.0848 27.7102 19.0848V21.1348H26.6602C25.6244 21.1348 25.3019 21.7773 25.3019 22.4365V23.9998H27.6127L27.2435 26.4082H25.3019V32.2323C29.2852 31.6073 32.3327 28.1582 32.3327 23.9998C32.3327 19.3973 28.6019 15.6665 23.9994 15.6665Z" fill="#160042"/>
</svg>
