<svg width="48" height="48" viewBox="0 0 48 48" fill="none" xmlns="http://www.w3.org/2000/svg">
<rect width="48" height="48" rx="13" fill="#F3F5FB"/>
<path d="M24.0003 15.6665C26.2644 15.6665 26.5469 15.6748 27.4353 15.7165C28.3228 15.7582 28.9269 15.8973 29.4586 16.104C30.0086 16.3157 30.4719 16.6023 30.9353 17.0648C31.359 17.4814 31.6869 17.9853 31.8961 18.5415C32.1019 19.0723 32.2419 19.6773 32.2836 20.5648C32.3228 21.4532 32.3336 21.7357 32.3336 23.9998C32.3336 26.264 32.3253 26.5465 32.2836 27.4348C32.2419 28.3223 32.1019 28.9265 31.8961 29.4582C31.6875 30.0147 31.3596 30.5187 30.9353 30.9348C30.5186 31.3584 30.0147 31.6863 29.4586 31.8957C28.9278 32.1015 28.3228 32.2415 27.4353 32.2832C26.5469 32.3223 26.2644 32.3332 24.0003 32.3332C21.7362 32.3332 21.4537 32.3248 20.5653 32.2832C19.6778 32.2415 19.0737 32.1015 18.542 31.8957C17.9856 31.6869 17.4816 31.359 17.0653 30.9348C16.6415 30.5183 16.3136 30.0144 16.1045 29.4582C15.8978 28.9273 15.7587 28.3223 15.717 27.4348C15.6778 26.5465 15.667 26.264 15.667 23.9998C15.667 21.7357 15.6753 21.4532 15.717 20.5648C15.7587 19.6765 15.8978 19.0732 16.1045 18.5415C16.313 17.985 16.641 17.4809 17.0653 17.0648C17.4817 16.6409 17.9857 16.313 18.542 16.104C19.0737 15.8973 19.677 15.7582 20.5653 15.7165C21.4537 15.6773 21.7362 15.6665 24.0003 15.6665ZM24.0003 19.8332C22.8952 19.8332 21.8355 20.2722 21.054 21.0536C20.2726 21.835 19.8337 22.8948 19.8337 23.9998C19.8337 25.1049 20.2726 26.1647 21.054 26.9461C21.8355 27.7275 22.8952 28.1665 24.0003 28.1665C25.1054 28.1665 26.1652 27.7275 26.9466 26.9461C27.728 26.1647 28.1669 25.1049 28.1669 23.9998C28.1669 22.8948 27.728 21.835 26.9466 21.0536C26.1652 20.2722 25.1054 19.8332 24.0003 19.8332ZM29.4169 19.6248C29.4169 19.3486 29.3072 19.0836 29.1119 18.8883C28.9165 18.6929 28.6515 18.5832 28.3753 18.5832C28.099 18.5832 27.8341 18.6929 27.6387 18.8883C27.4434 19.0836 27.3336 19.3486 27.3336 19.6248C27.3336 19.9011 27.4434 20.1661 27.6387 20.3614C27.8341 20.5568 28.099 20.6665 28.3753 20.6665C28.6515 20.6665 28.9165 20.5568 29.1119 20.3614C29.3072 20.1661 29.4169 19.9011 29.4169 19.6248ZM24.0003 21.4998C24.6633 21.4998 25.2992 21.7632 25.768 22.2321C26.2369 22.7009 26.5003 23.3368 26.5003 23.9998C26.5003 24.6629 26.2369 25.2988 25.768 25.7676C25.2992 26.2364 24.6633 26.4998 24.0003 26.4998C23.3372 26.4998 22.7014 26.2364 22.2325 25.7676C21.7637 25.2988 21.5003 24.6629 21.5003 23.9998C21.5003 23.3368 21.7637 22.7009 22.2325 22.2321C22.7014 21.7632 23.3372 21.4998 24.0003 21.4998Z" fill="#160042"/>
</svg>
