<svg width="48" height="48" viewBox="0 0 48 48" fill="none" xmlns="http://www.w3.org/2000/svg">
<rect width="48" height="48" rx="13" fill="#F3F5FB"/>
<path d="M32.4683 18.7133C31.8321 18.9947 31.1574 19.1795 30.4666 19.2616C31.1947 18.8261 31.7397 18.1408 31.9999 17.3333C31.3166 17.7399 30.5674 18.0249 29.7866 18.1791C29.2621 17.6179 28.5669 17.2457 27.809 17.1204C27.0512 16.9951 26.2732 17.1237 25.596 17.4861C24.9187 17.8486 24.3802 18.4247 24.0642 19.1248C23.7481 19.8249 23.6722 20.6098 23.8483 21.3574C22.4625 21.288 21.1069 20.9279 19.8693 20.3005C18.6318 19.6731 17.54 18.7925 16.6649 17.7158C16.3552 18.2478 16.1924 18.8526 16.1933 19.4683C16.1933 20.6766 16.8083 21.7441 17.7433 22.3691C17.1899 22.3516 16.6488 22.2022 16.1649 21.9333V21.9766C16.1651 22.7813 16.4436 23.5612 16.9531 24.1841C17.4627 24.807 18.172 25.2345 18.9608 25.3941C18.4471 25.5333 17.9085 25.5538 17.3858 25.4541C17.6081 26.1468 18.0416 26.7526 18.6254 27.1867C19.2092 27.6207 19.9142 27.8614 20.6416 27.8749C19.9187 28.4427 19.0909 28.8624 18.2057 29.11C17.3204 29.3577 16.395 29.4284 15.4824 29.3182C17.0755 30.3428 18.93 30.8867 20.8241 30.8849C27.2349 30.8849 30.7408 25.5741 30.7408 20.9683C30.7408 20.8183 30.7366 20.6666 30.7299 20.5183C31.4123 20.0251 32.0013 19.4141 32.4691 18.7141L32.4683 18.7133Z" fill="#160042"/>
</svg>
